<svg 
  width="44" 
  height="30" 
  viewBox="0 0 44 30" 
  fill="none" 
  xmlns="http://www.w3.org/2000/svg"
>
  <path 
  d="M22 29.5C12.2827 29.5 3.9719 23.4992 0.538331 15C3.9719 6.50078 12.2827 0.5 22 0.5C31.7271 0.5 40.0282 6.50066 43.4617 15C40.0282 23.4993 31.7271 29.5 22 29.5ZM11.5 15C11.5 20.7961 16.2039 25.5 22 25.5C27.7961 25.5 32.5 20.7961 32.5 15C32.5 9.20386 27.7961 4.5 22 4.5C16.2039 4.5 11.5 9.20386 11.5 15ZM16.5 15C16.5 11.9661 18.9661 9.5 22 9.5C25.0339 9.5 27.5 11.9661 27.5 15C27.5 18.0339 25.0339 20.5 22 20.5C18.9661 20.5 16.5 18.0339 16.5 15Z" 
  stroke="white"
  />
</svg>
